<?xml version="1.0" standalone="no"?>
<!DOCTYPE svg PUBLIC "-//W3C//DTD SVG 20010904//EN"
 "http://www.w3.org/TR/2001/REC-SVG-20010904/DTD/svg10.dtd">
<svg version="1.0" xmlns="http://www.w3.org/2000/svg"
 width="512.000000pt" height="512.000000pt" viewBox="0 0 512.000000 512.000000"
 preserveAspectRatio="xMidYMid meet">
<metadata>
Created by potrace 1.11, written by Peter Selinger 2001-2013
</metadata>
<g transform="translate(0.000000,512.000000) scale(0.100000,-0.100000)"
fill="#000000" stroke="none">
<path d="M2397 5026 c-78 -45 -250 -145 -382 -221 -132 -76 -253 -146 -268
-154 -16 -9 -36 -20 -45 -26 -9 -5 -60 -34 -112 -64 -52 -30 -103 -61 -114
-70 -10 -9 -20 -15 -22 -13 -2 1 -14 -4 -27 -12 -12 -8 -141 -82 -287 -166
-228 -131 -351 -202 -563 -325 -23 -14 -78 -45 -123 -71 -45 -25 -88 -58 -96
-72 -14 -24 -15 -171 -16 -1257 0 -689 4 -1245 9 -1265 11 -42 2 -36 334 -228
143 -82 401 -231 574 -331 173 -100 318 -181 322 -181 5 0 9 -4 9 -10 0 -5 4
-10 9 -10 8 0 424 -238 763 -436 190 -111 188 -111 257 -78 31 15 80 42 109
61 29 18 54 33 57 33 3 0 28 15 57 32 29 18 65 40 81 48 31 17 115 66 477 275
135 78 364 211 510 295 146 84 280 161 298 171 17 11 47 27 65 37 121 69 378
219 409 238 21 13 40 24 43 24 14 0 37 33 45 63 4 17 7 588 7 1267 -2 1309 0
1259 -46 1287 -9 5 -36 21 -61 35 -67 38 -343 197 -360 208 -15 9 -74 43 -165
95 -27 15 -104 59 -170 98 -66 38 -136 79 -155 90 -38 21 -475 273 -527 303
-131 77 -198 114 -205 114 -4 0 -8 5 -8 10 0 6 -4 10 -10 10 -5 0 -105 56
-222 123 -261 152 -255 148 -285 152 -15 1 -75 -27 -166 -79z"/>
</g>
</svg>
