<svg width="250" height="250" viewBox="0 0 250 250" fill="none" xmlns="http://www.w3.org/2000/svg">
<path d="M120 27.8867C123.094 26.1004 126.906 26.1004 130 27.8868L206.603 72.1133C209.697 73.8996 211.603 77.2008 211.603 80.7735V169.227C211.603 172.799 209.697 176.1 206.603 177.887L130 222.113C126.906 223.9 123.094 223.9 120 222.113L43.3975 177.887C40.3034 176.1 38.3975 172.799 38.3975 169.227V80.7735C38.3975 77.2008 40.3035 73.8996 43.3975 72.1132L120 27.8867Z" fill="#F1EC40"/>
<path d="M100.465 135.68L97.2251 140.792L74.2571 126.392V122.288L97.2971 107.816L100.465 112.856L81.8171 124.304L100.465 135.68ZM112.677 152.312L132.981 93.344L138.309 95.144L118.005 154.112L112.677 152.312ZM153.731 107.816L176.771 122.288V126.392L153.803 140.792L150.563 135.68L169.211 124.304L150.563 112.856L153.731 107.816Z" fill="black"/>
<path d="M71.0023 124.333L74.7511 121.979L74.7467 126.694L71.0023 124.333Z" fill="black"/>
<path d="M179.998 124.34L175.504 127.204L175.499 121.484L179.998 124.34Z" fill="black"/>
</svg>
